# xmcd
#
# Track frame offsets:
#	150
#	13489
#	26289
#	36583
#	47447
#	59589
#	72610
#	83786
#	96259
#	105603
#	116604
#	126269
#	137762
#	147506
#	161534
#	177284
#
# Disc length: 2520 seconds
#
# Revision: 1
# Processed by: cddbd v1.5.2PL0 Copyright (c) Steve Scherf et al.
# Submitted via: audiograbber 1.83.01
#
DISCID=eb09d610
DTITLE=Various Artist - Golden Age of Country: Waltz Across Texas [Disc 1]
DYEAR=2009
DGENRE=Country
TTITLE0=Hank Williams - Hey, Good Lookin'
TTITLE1=George Jones - White Lightning
TTITLE2=Loretta Lynn - You Ain't Woman Enough
TTITLE3=Leroy Van Dyke - Walk on By
TTITLE4=Ernest Tubb and His Texas Troubadours - Waltz Across Texas
TTITLE5=Conway Twitty - Next in Line
TTITLE6=Roger Miller - King of the Road
TTITLE7=Patsy Cline - Crazy
TTITLE8=Buck Owens - Love's Gonna Live Here
TTITLE9=The Everly Brothers - Bye Bye Love
TTITLE10=Webb Pierce - In the Jailhouse Now
TTITLE11=Kitty Wells - It Wasn't God Who Made Honky Tonk Angels
TTITLE12=Bill Monroe and His Blue Grass Boys - Blue Moon of Kentucky
TTITLE13=Tom T. Hall - A Week in the Country Jail
TTITLE14=Bill Anderson - Mama Sang a Song
TTITLE15=Jack Greene - There Goes My Everything
EXTD=
EXTT0=
EXTT1=
EXTT2=
EXTT3=
EXTT4=
EXTT5=
EXTT6=
EXTT7=
EXTT8=
EXTT9=
EXTT10=
EXTT11=
EXTT12=
EXTT13=
EXTT14=
EXTT15=
PLAYORDER=
